<?xml version="1.0" encoding="utf-8"?>
<!-- Generator: Adobe Illustrator 26.3.1, SVG Export Plug-In . SVG Version: 6.00 Build 0)  -->
<svg version="1.1" id="Layer_1" xmlns="http://www.w3.org/2000/svg" xmlns:xlink="http://www.w3.org/1999/xlink" x="0px" y="0px"
	 viewBox="0 0 1435.1 328.2" style="enable-background:new 0 0 1435.1 328.2;" xml:space="preserve">
<style type="text/css">
	.st0{fill:#FFFFFF;}
</style>
<g>
	<path class="st0" d="M458.8,246.7v-149h64.5c18.1,0,31.7,4.1,40.9,12.4c9.2,8.3,13.8,20.5,13.8,36.6c0,16.1-4.6,28.3-13.8,36.5
		c-9.2,8.2-22.8,12.3-40.9,12.3h-25.4v51.2H458.8z M497.9,163.1h24.3c5.6,0,9.8-1.4,12.6-4.3c2.8-2.8,4.2-6.9,4.2-12.3
		c0-5.3-1.4-9.3-4.2-12.2c-2.8-2.9-7-4.3-12.7-4.3h-24.3V163.1z M586.2,246.7H545l-33.4-71.2h36.9L586.2,246.7z"/>
	<path class="st0" d="M648,241.8c-6.2,4-13.3,5.9-21.1,5.9c-10.3,0-18.6-2.9-24.6-8.7c-6.1-5.8-9.1-13.5-9.1-23.3
		c0-7.2,1.8-13.5,5.5-19.1c3.7-5.5,8.8-9.9,15.3-13.2c6.6-3.3,14.2-5,22.8-5.3l32.2-1V202l-31.6,1.2c-3.4,0.1-6.2,1-8.2,2.6
		c-2,1.6-3.1,3.6-3.1,6c0,2.4,0.8,4.2,2.4,5.6c1.6,1.4,3.8,2,6.7,2c2,0,4.2-0.3,6.5-1c2.3-0.7,4.7-1.8,7.4-3.2
		c2.6-1.4,5.4-3.2,8.4-5.3l11.6,11.5C661.2,231,654.2,237.9,648,241.8z M692.7,246.7h-31.2l-7.9-22.4v-52c0-2.2-0.6-4-1.8-5.4
		c-1.2-1.4-2.8-2.5-4.7-3.2c-1.9-0.7-4-1-6.3-1c-3.4,0-6.2,0.9-8.5,2.7c-2.3,1.8-3.6,4.1-4.1,6.9h-33c0-11.8,4.2-21.2,12.5-28.3
		c8.3-7.1,20.1-10.6,35.2-10.6c9.8,0,18.5,1.5,25.9,4.6c7.4,3.1,13.3,7.5,17.5,13.3c4.2,5.8,6.3,12.8,6.3,21V246.7z"/>
	<path class="st0" d="M704.6,139.1h79.3v25.5h-79.3V139.1z M786.5,242.5c-4.3,1.5-8.9,2.7-13.8,3.7c-4.9,1-9.8,1.5-14.7,1.5
		c-6.7,0-12.8-1.1-18.5-3.2c-5.7-2.1-10.2-5.6-13.6-10.2c-3.4-4.7-5.1-10.9-5.1-18.6V105.6H760v105.6c0,2.9,0.9,5,2.8,6.4
		c1.8,1.4,4.3,2,7.3,2c1.6,0,3.5-0.1,5.6-0.4c2.1-0.3,4-0.6,5.8-1L786.5,242.5z"/>
	<path class="st0" d="M836.5,214c2.5,2.4,6.1,3.6,10.7,3.6c2.5,0,4.7-0.5,6.6-1.4c1.9-1,3.4-2.5,4.4-4.5h40.1
		c-2.6,10.3-8.5,18.9-17.5,25.8c-9,6.9-20.8,10.3-35.2,10.3c-17.1,0-30.2-5.1-39.5-15.3c-9.3-10.2-13.9-24.2-13.9-41.9
		c0-17.6,4.6-31.5,13.9-41.8s22.4-15.4,39.2-15.4c13.4,0,24.2,2.8,32.6,8.4c8.3,5.6,14.3,13.6,17.9,24.1c3.6,10.5,5,23.1,4.1,37.9
		h-68C832.5,208.1,834,211.6,836.5,214z M860.3,178.5c0-3.3-0.6-6.1-1.7-8.5c-1.2-2.4-2.8-4.2-4.9-5.4c-2.1-1.3-4.7-1.9-7.8-1.9
		c-4,0-7.3,1.5-9.9,4.3c-2.6,2.9-3.9,6.7-3.9,11.5H860.3z"/>
	<path class="st0" d="M915.9,159.9c3.2-8.5,7.8-15.1,13.8-19.7c6-4.6,13.2-6.9,21.6-6.9c7.4,0,14.1,1.9,20,5.7
		c5.9,3.8,11.1,9.7,15.8,17.5l-9.5,16.1c-1.8-3-3.9-5.3-6.2-6.9c-2.3-1.6-4.6-2.4-6.9-2.4c-4.3,0-7.8,2.5-10.5,7.5
		c-2.7,5-4.1,11.5-4.1,19.6c0,8,1.4,14.5,4.1,19.5c2.7,5,6.2,7.6,10.5,7.6c2.4,0,4.7-0.8,6.9-2.4c2.2-1.6,4.3-3.8,6-6.7l9.5,15.8
		c-4.7,7.9-10,13.8-15.8,17.6c-5.9,3.8-12.5,5.7-20,5.7c-8.4,0-15.6-2.3-21.6-6.8c-6-4.5-10.6-11.1-13.8-19.6
		c-3.2-8.5-4.8-18.7-4.8-30.6C911.1,178.7,912.7,168.5,915.9,159.9z M929.2,282.5c-8.3-7.2-12.5-16.6-12.5-28.4h33
		c0.5,2.8,1.9,5.1,4.3,6.9c2.3,1.8,5.3,2.7,8.9,2.7c3.6,0,6.7-0.8,9.3-2.5c2.6-1.7,4-4.2,4-7.6v-96.9l7.9-22.4h31.2v119.3
		c0,8.3-2.1,15.4-6.3,21.3c-4.2,5.9-10.1,10.4-17.6,13.6c-7.5,3.2-16.3,4.7-26.3,4.7C949.4,293.2,937.5,289.7,929.2,282.5z"/>
	<path class="st0" d="M1075.6,134.3l4.9,34.3v78.1h-38.9V134.3H1075.6z M1113.5,168.4c-6.5,0-12.3,1.4-17.2,4.1
		c-4.9,2.7-8.8,6.7-11.6,11.9c-2.8,5.2-4.2,11.6-4.2,19.1H1069c0-8.9,0.7-17.5,2-25.9c1.3-8.4,3.7-15.9,7.1-22.6
		c3.4-6.7,8.2-12.1,14.3-16c6.2-4,14.1-5.9,23.7-5.9c0.7,0,1.5,0,2.2,0c0.8,0,1.5,0,2.2,0v36.1
		C1118.4,168.6,1116,168.4,1113.5,168.4z"/>
	<path class="st0" d="M1186.7,241.8c-6.2,4-13.3,5.9-21.1,5.9c-10.3,0-18.6-2.9-24.6-8.7c-6.1-5.8-9.1-13.5-9.1-23.3
		c0-7.2,1.8-13.5,5.5-19.1c3.7-5.5,8.8-9.9,15.3-13.2c6.6-3.3,14.2-5,22.8-5.3l32.2-1V202l-31.6,1.2c-3.4,0.1-6.2,1-8.2,2.6
		c-2,1.6-3.1,3.6-3.1,6c0,2.4,0.8,4.2,2.4,5.6c1.6,1.4,3.8,2,6.7,2c2,0,4.2-0.3,6.5-1c2.3-0.7,4.7-1.8,7.4-3.2
		c2.6-1.4,5.4-3.2,8.4-5.3l11.6,11.5C1199.9,231,1192.9,237.9,1186.7,241.8z M1231.4,246.7h-31.2l-7.9-22.4v-52c0-2.2-0.6-4-1.8-5.4
		c-1.2-1.4-2.8-2.5-4.7-3.2c-1.9-0.7-4-1-6.3-1c-3.4,0-6.2,0.9-8.5,2.7c-2.3,1.8-3.6,4.1-4.1,6.9h-33c0-11.8,4.2-21.2,12.5-28.3
		c8.3-7.1,20.1-10.6,35.2-10.6c9.8,0,18.5,1.5,25.9,4.6c7.4,3.1,13.3,7.5,17.5,13.3c4.2,5.8,6.3,12.8,6.3,21V246.7z"/>
	<path class="st0" d="M1289.2,134.3l6.9,34.4v78H1257V134.3H1289.2z M1362.5,246.7h-39v-62c0-6.1-1-10.5-2.9-13.2
		c-1.9-2.8-4.9-4.2-9-4.2c-4,0-7.2,1.3-9.6,3.9c-2.5,2.6-4.5,6.4-6.1,11.6l-14.6-6.3c3.5-15.2,8.7-26.1,15.7-32.9
		c7-6.8,16.5-10.2,28.6-10.2c12.1,0,21.3,3.6,27.6,10.8c6.3,7.2,9.4,17.7,9.4,31.6V246.7z M1429.2,246.7h-39v-62
		c0-6.1-1-10.5-2.9-13.2c-1.9-2.8-4.9-4.2-9-4.2c-4,0-7.2,1.3-9.6,3.9c-2.5,2.6-4.5,6.4-6.1,11.6l-14.6-6.3
		c3.5-15.2,8.7-26.1,15.7-32.9c7-6.8,16.5-10.2,28.6-10.2c12.1,0,21.3,3.6,27.6,10.8c6.3,7.2,9.4,17.7,9.4,31.6V246.7z"/>
</g>
<path class="st0" d="M164.2,326.9c-13.9,0-27.9-5.3-38.5-15.9l-109-109C6.5,191.8,0.9,178.2,0.9,163.6c0-14.6,5.6-28.2,15.9-38.5
	l109-109c21.2-21.2,55.7-21.2,76.9,0l109,109c21.2,21.2,21.2,55.7,0,76.9l-109,109C192.1,321.6,178.1,326.9,164.2,326.9z
	 M164.2,36.5c-4.6,0-9.3,1.8-12.8,5.3l-109,109c-7.1,7.1-7.1,18.6,0,25.6l109,109c7.1,7.1,18.6,7.1,25.6,0l109-109
	c7.1-7.1,7.1-18.6,0-25.6l-109-109C173.5,38.3,168.8,36.5,164.2,36.5z"/>
<path class="st0" d="M265.7,328.6c-13.9,0-27.9-5.3-38.5-15.9l-109-109c-21.2-21.2-21.2-55.7,0-76.9l109-109
	c21.2-21.2,55.7-21.2,76.9,0l109,109c21.2,21.2,21.2,55.7,0,76.9l-109,109C293.6,323.3,279.6,328.6,265.7,328.6z M265.7,38.2
	c-4.6,0-9.3,1.8-12.8,5.3l-109,109c-7.1,7.1-7.1,18.6,0,25.6l109,109c7.1,7.1,18.6,7.1,25.6,0l109-109c7.1-7.1,7.1-18.6,0-25.6
	l-109-109C275,39.9,270.4,38.2,265.7,38.2z"/>
</svg>
